<?xml version="1.0" encoding="UTF-8"?>
<svg version="1.1" xmlns="http://www.w3.org/2000/svg" width="32" height="18">
<path d="M0 0 C10.56 0 21.12 0 32 0 C32 5.94 32 11.88 32 18 C21.44 18 10.88 18 0 18 C0 12.06 0 6.12 0 0 Z " fill="#B9B8B4" transform="translate(0,0)"/>
<path d="M0 0 C1.98 0 3.96 0 6 0 C6.625 2.3125 6.625 2.3125 7 5 C6.01 6.485 6.01 6.485 5 8 C5.33 8.99 5.66 9.98 6 11 C6.66 11 7.32 11 8 11 C8 11.99 8 12.98 8 14 C7.34 14 6.68 14 6 14 C6.33 15.32 6.66 16.64 7 18 C4.69 18 2.38 18 0 18 C0 12.06 0 6.12 0 0 Z " fill="#A5A39B" transform="translate(0,0)"/>
<path d="M0 0 C3.96 0 7.92 0 12 0 C12 6 12 6 10 9 C10.33 9.66 10.66 10.32 11 11 C10.34 11 9.68 11 9 11 C9 11.99 9 12.98 9 14 C7.02 14.33 5.04 14.66 3 15 C2.34 13.68 1.68 12.36 1 11 C1.66 10.34 2.32 9.68 3 9 C4.32 9 5.64 9 7 9 C7 8.34 7 7.68 7 7 C5.68 6.67 4.36 6.34 3 6 C3.99 5.67 4.98 5.34 6 5 C4.06745228 2.9754262 2.36841312 1.57894208 0 0 Z " fill="#271C28" transform="translate(13,0)"/>
<path d="M0 0 C2.31 0 4.62 0 7 0 C6.814375 0.94875 6.62875 1.8975 6.4375 2.875 C5.71313368 5.89868793 5.71313368 5.89868793 7 8 C5.68 8 4.36 8 3 8 C3.26676204 9.98491642 3.26676204 9.98491642 4 12 C4.99 12.33 5.98 12.66 7 13 C7 14.65 7 16.3 7 18 C5.02 18 3.04 18 1 18 C0.67 16.68 0.34 15.36 0 14 C0.66 14 1.32 14 2 14 C2 13.01 2 12.02 2 11 C1.34 11 0.68 11 0 11 C0 10.34 0 9.68 0 9 C-0.66 8.67 -1.32 8.34 -2 8 C-1.34 7.01 -0.68 6.02 0 5 C0.16713569 2.37468476 0.16713569 2.37468476 0 0 Z " fill="#A18A7A" transform="translate(6,0)"/>
<path d="M0 0 C1.98 0 3.96 0 6 0 C6 1.98 6 3.96 6 6 C5.34 6 4.68 6 4 6 C4 7.98 4 9.96 4 12 C2.1875 12.625 2.1875 12.625 0 13 C-0.99 12.34 -1.98 11.68 -3 11 C-2.690625 10.29875 -2.38125 9.5975 -2.0625 8.875 C-0.96697322 5.91063343 -0.43577008 3.12301892 0 0 Z " fill="#B8AEA1" transform="translate(25,0)"/>
<path d="M0 0 C0.33 0 0.66 0 1 0 C1 5.94 1 11.88 1 18 C-4 16 -4 16 -6 13 C-4.68 12.67 -3.36 12.34 -2 12 C-2.185625 11.38125 -2.37125 10.7625 -2.5625 10.125 C-3 8 -3 8 -2 6 C-1.34 6 -0.68 6 0 6 C0 4.02 0 2.04 0 0 Z " fill="#CAC7B6" transform="translate(31,0)"/>
<path d="M0 0 C2.64 0 5.28 0 8 0 C8 0.66 8 1.32 8 2 C7.34 2 6.68 2 6 2 C6.33 3.32 6.66 4.64 7 6 C4.69 6 2.38 6 0 6 C0 4.02 0 2.04 0 0 Z " fill="#D0C9B8" transform="translate(0,12)"/>
<path d="M0 0 C1.55078125 1.20703125 1.55078125 1.20703125 3 3 C2.85546875 5.26171875 2.85546875 5.26171875 2.1875 7.6875 C1.97480469 8.49574219 1.76210937 9.30398438 1.54296875 10.13671875 C1.36378906 10.75160156 1.18460938 11.36648438 1 12 C-0.32 11.67 -1.64 11.34 -3 11 C-3 9.68 -3 8.36 -3 7 C-2.01 6.67 -1.02 6.34 0 6 C-0.2784375 4.7934375 -0.2784375 4.7934375 -0.5625 3.5625 C-0.706875 2.716875 -0.85125 1.87125 -1 1 C-0.67 0.67 -0.34 0.34 0 0 Z " fill="#D4BC9E" transform="translate(12,1)"/>
<path d="M0 0 C2.475 0.495 2.475 0.495 5 1 C5.33 1.99 5.66 2.98 6 4 C5.01 4.495 5.01 4.495 4 5 C4.99 5.33 5.98 5.66 7 6 C7 6.66 7 7.32 7 8 C6.21625 8.28875 5.4325 8.5775 4.625 8.875 C1.90328368 9.84912254 1.90328368 9.84912254 0 12 C0.08378906 11.38511719 0.16757813 10.77023437 0.25390625 10.13671875 C0.35574219 9.32847656 0.45757812 8.52023437 0.5625 7.6875 C0.66691406 6.88699219 0.77132813 6.08648437 0.87890625 5.26171875 C1.14755178 2.83182884 1.14755178 2.83182884 0 0 Z " fill="#C0927A" transform="translate(13,1)"/>
<path d="M0 0 C0.99 0.33 1.98 0.66 3 1 C2.67 3.31 2.34 5.62 2 8 C-0.31 8.66 -2.62 9.32 -5 10 C-4.34 8.68 -3.68 7.36 -3 6 C-1.68 6 -0.36 6 1 6 C1 5.34 1 4.68 1 4 C-0.32 3.67 -1.64 3.34 -3 3 C-2.01 2.67 -1.02 2.34 0 2 C0 1.34 0 0.68 0 0 Z " fill="#774641" transform="translate(19,3)"/>
<path d="M0 0 C1.65 0 3.3 0 5 0 C4.814375 0.94875 4.62875 1.8975 4.4375 2.875 C3.71313368 5.89868793 3.71313368 5.89868793 5 8 C3.35 8.33 1.7 8.66 0 9 C0 6.03 0 3.06 0 0 Z " fill="#B09A88" transform="translate(8,0)"/>
<path d="M0 0 C0.66 0.33 1.32 0.66 2 1 C2 1.99 2 2.98 2 4 C1.01 4.495 1.01 4.495 0 5 C0 5.99 0 6.98 0 8 C-1.98 8.33 -3.96 8.66 -6 9 C-6.33 8.01 -6.66 7.02 -7 6 C-6.21625 5.938125 -5.4325 5.87625 -4.625 5.8125 C-3.75875 5.544375 -2.8925 5.27625 -2 5 C-0.62533375 2.52363988 -0.62533375 2.52363988 0 0 Z " fill="#40343E" transform="translate(22,6)"/>
<path d="M0 0 C0.33 0 0.66 0 1 0 C1 4.29 1 8.58 1 13 C-0.32 12.34 -1.64 11.68 -3 11 C-2.690625 10.29875 -2.38125 9.5975 -2.0625 8.875 C-0.96697322 5.91063343 -0.43577008 3.12301892 0 0 Z " fill="#837975" transform="translate(25,0)"/>
<path d="M0 0 C2.475 0.99 2.475 0.99 5 2 C5 2.66 5 3.32 5 4 C5.66 4.33 6.32 4.66 7 5 C4.69 5 2.38 5 0 5 C0 3.35 0 1.7 0 0 Z " fill="#C1BEB8" transform="translate(13,13)"/>
<path d="M0 0 C2.375 -0.125 2.375 -0.125 5 0 C5.66 0.66 6.32 1.32 7 2 C6.67 2.99 6.34 3.98 6 5 C1.125 2.25 1.125 2.25 0 0 Z " fill="#D8D5C4" transform="translate(25,13)"/>
<path d="M0 0 C2.475 0.495 2.475 0.495 5 1 C4.67 1.99 4.34 2.98 4 4 C1.9375 4.6875 1.9375 4.6875 0 5 C0 3.35 0 1.7 0 0 Z " fill="#B1B1AC" transform="translate(0,0)"/>
<path d="M0 0 C2.475 0.495 2.475 0.495 5 1 C5.33 1.99 5.66 2.98 6 4 C4.68 4.33 3.36 4.66 2 5 C1.34 3.35 0.68 1.7 0 0 Z " fill="#AD7161" transform="translate(13,1)"/>
</svg>
